<?xml version="1.0" encoding="UTF-8" standalone="no"?><!-- Generator: Gravit.io --><svg xmlns="http://www.w3.org/2000/svg" xmlns:xlink="http://www.w3.org/1999/xlink" style="isolation:isolate" viewBox="-0.004 -0.004 199.58 199.58" width="199.58pt" height="199.58pt"><g><radialGradient id="_rgradient_12" fx="0.7822300400492825" fy="0.7956336300397764" cx="0.5" cy="0.5" r="0.5" gradientTransform="matrix(201.342,-2.667,-3.338,182.637,42.444,54.136)" gradientUnits="userSpaceOnUse"><stop offset="0.8333333333333334%" stop-opacity="1" style="stop-color:rgb(77,66,54)"/><stop offset="98.33333333333333%" stop-opacity="1" style="stop-color:rgb(40,35,29)"/></radialGradient><path d=" M 49.998 -0.004 L 149.574 -0.004 C 177.171 -0.004 199.576 22.401 199.576 49.998 L 199.576 149.574 C 199.576 177.171 177.171 199.576 149.574 199.576 L 49.998 199.576 C 22.401 199.576 -0.004 177.171 -0.004 149.574 L -0.004 49.998 C -0.004 22.401 22.401 -0.004 49.998 -0.004 Z " fill="url(#_rgradient_12)"/><path d=" M 67.493 112.053 L 52.663 113.103 L 51.35 111.922 L 61.325 64.282 L 61.325 64.282 Q 62.506 59.032 57.387 56.933 L 57.387 56.933 L 55.419 56.145 L 55.681 53.914 L 78.911 46.958 L 80.354 48.271 L 77.467 63.101 L 77.467 63.101 Q 84.292 55.883 91.378 51.486 L 91.378 51.486 L 91.378 51.486 Q 98.465 47.09 104.634 47.09 L 104.634 47.09 L 104.634 47.09 Q 108.833 47.09 111.524 49.649 L 111.524 49.649 L 111.524 49.649 Q 114.214 52.208 114.214 57.458 L 114.214 57.458 L 114.214 57.458 Q 114.214 60.345 113.689 63.298 L 113.689 63.298 L 113.689 63.298 Q 113.164 66.251 112.377 69.4 L 112.377 69.4 L 105.684 96.305 L 105.684 96.305 Q 105.159 98.404 104.831 99.914 L 104.831 99.914 L 104.831 99.914 Q 104.502 101.423 104.502 102.473 L 104.502 102.473 L 104.502 102.473 Q 104.502 105.229 106.734 105.229 L 106.734 105.229 L 106.734 105.229 Q 110.146 105.229 115.395 99.717 L 115.395 99.717 L 117.233 101.554 L 117.233 101.554 Q 113.952 106.41 108.702 110.15 L 108.702 110.15 L 108.702 110.15 Q 103.453 113.891 97.022 113.891 L 97.022 113.891 L 97.022 113.891 Q 92.953 113.891 90.591 111.922 L 90.591 111.922 L 90.591 111.922 Q 88.229 109.954 88.229 106.541 L 88.229 106.541 L 88.229 106.541 Q 88.229 103.785 88.885 100.964 L 88.885 100.964 L 88.885 100.964 Q 89.541 98.142 90.46 94.861 L 90.46 94.861 L 95.578 74.125 L 95.578 74.125 Q 96.628 70.188 97.284 67.038 L 97.284 67.038 L 97.284 67.038 Q 97.94 63.888 97.94 61.395 L 97.94 61.395 L 97.94 61.395 Q 97.94 58.77 96.825 57.786 L 96.825 57.786 L 96.825 57.786 Q 95.709 56.801 93.872 56.801 L 93.872 56.801 L 93.872 56.801 Q 90.722 56.801 86.326 59.492 L 86.326 59.492 L 86.326 59.492 Q 81.929 62.182 76.417 67.957 L 76.417 67.957 L 72.874 84.099 L 72.874 84.099 Q 71.43 91.055 70.118 98.011 L 70.118 98.011 L 70.118 98.011 Q 68.805 104.966 67.493 112.053 L 67.493 112.053 Z " fill="rgb(239,214,188)"/><clipPath id="_clipPath_qic98dAgec2rp34bPbu7stp8vSkV0W6b"><path d=" M 67.493 112.053 L 52.663 113.103 L 51.35 111.922 L 61.325 64.282 L 61.325 64.282 Q 62.506 59.032 57.387 56.933 L 57.387 56.933 L 55.419 56.145 L 55.681 53.914 L 78.911 46.958 L 80.354 48.271 L 77.467 63.101 L 77.467 63.101 Q 84.292 55.883 91.378 51.486 L 91.378 51.486 L 91.378 51.486 Q 98.465 47.09 104.634 47.09 L 104.634 47.09 L 104.634 47.09 Q 108.833 47.09 111.524 49.649 L 111.524 49.649 L 111.524 49.649 Q 114.214 52.208 114.214 57.458 L 114.214 57.458 L 114.214 57.458 Q 114.214 60.345 113.689 63.298 L 113.689 63.298 L 113.689 63.298 Q 113.164 66.251 112.377 69.4 L 112.377 69.4 L 105.684 96.305 L 105.684 96.305 Q 105.159 98.404 104.831 99.914 L 104.831 99.914 L 104.831 99.914 Q 104.502 101.423 104.502 102.473 L 104.502 102.473 L 104.502 102.473 Q 104.502 105.229 106.734 105.229 L 106.734 105.229 L 106.734 105.229 Q 110.146 105.229 115.395 99.717 L 115.395 99.717 L 117.233 101.554 L 117.233 101.554 Q 113.952 106.41 108.702 110.15 L 108.702 110.15 L 108.702 110.15 Q 103.453 113.891 97.022 113.891 L 97.022 113.891 L 97.022 113.891 Q 92.953 113.891 90.591 111.922 L 90.591 111.922 L 90.591 111.922 Q 88.229 109.954 88.229 106.541 L 88.229 106.541 L 88.229 106.541 Q 88.229 103.785 88.885 100.964 L 88.885 100.964 L 88.885 100.964 Q 89.541 98.142 90.46 94.861 L 90.46 94.861 L 95.578 74.125 L 95.578 74.125 Q 96.628 70.188 97.284 67.038 L 97.284 67.038 L 97.284 67.038 Q 97.94 63.888 97.94 61.395 L 97.94 61.395 L 97.94 61.395 Q 97.94 58.77 96.825 57.786 L 96.825 57.786 L 96.825 57.786 Q 95.709 56.801 93.872 56.801 L 93.872 56.801 L 93.872 56.801 Q 90.722 56.801 86.326 59.492 L 86.326 59.492 L 86.326 59.492 Q 81.929 62.182 76.417 67.957 L 76.417 67.957 L 72.874 84.099 L 72.874 84.099 Q 71.43 91.055 70.118 98.011 L 70.118 98.011 L 70.118 98.011 Q 68.805 104.966 67.493 112.053 L 67.493 112.053 Z " fill="rgb(255,255,255)"/></clipPath><g clip-path="url(#_clipPath_qic98dAgec2rp34bPbu7stp8vSkV0W6b)"><mask id="_mask_RuXycWConcT8xhORRc6i4UZfADHnzaB6"><path d=" M 67.493 112.053 L 52.663 113.103 L 51.35 111.922 L 61.325 64.282 L 61.325 64.282 Q 62.506 59.032 57.387 56.933 L 57.387 56.933 L 55.419 56.145 L 55.681 53.914 L 78.911 46.958 L 80.354 48.271 L 77.467 63.101 L 77.467 63.101 Q 84.292 55.883 91.378 51.486 L 91.378 51.486 L 91.378 51.486 Q 98.465 47.09 104.634 47.09 L 104.634 47.09 L 104.634 47.09 Q 108.833 47.09 111.524 49.649 L 111.524 49.649 L 111.524 49.649 Q 114.214 52.208 114.214 57.458 L 114.214 57.458 L 114.214 57.458 Q 114.214 60.345 113.689 63.298 L 113.689 63.298 L 113.689 63.298 Q 113.164 66.251 112.377 69.4 L 112.377 69.4 L 105.684 96.305 L 105.684 96.305 Q 105.159 98.404 104.831 99.914 L 104.831 99.914 L 104.831 99.914 Q 104.502 101.423 104.502 102.473 L 104.502 102.473 L 104.502 102.473 Q 104.502 105.229 106.734 105.229 L 106.734 105.229 L 106.734 105.229 Q 110.146 105.229 115.395 99.717 L 115.395 99.717 L 117.233 101.554 L 117.233 101.554 Q 113.952 106.41 108.702 110.15 L 108.702 110.15 L 108.702 110.15 Q 103.453 113.891 97.022 113.891 L 97.022 113.891 L 97.022 113.891 Q 92.953 113.891 90.591 111.922 L 90.591 111.922 L 90.591 111.922 Q 88.229 109.954 88.229 106.541 L 88.229 106.541 L 88.229 106.541 Q 88.229 103.785 88.885 100.964 L 88.885 100.964 L 88.885 100.964 Q 89.541 98.142 90.46 94.861 L 90.46 94.861 L 95.578 74.125 L 95.578 74.125 Q 96.628 70.188 97.284 67.038 L 97.284 67.038 L 97.284 67.038 Q 97.94 63.888 97.94 61.395 L 97.94 61.395 L 97.94 61.395 Q 97.94 58.77 96.825 57.786 L 96.825 57.786 L 96.825 57.786 Q 95.709 56.801 93.872 56.801 L 93.872 56.801 L 93.872 56.801 Q 90.722 56.801 86.326 59.492 L 86.326 59.492 L 86.326 59.492 Q 81.929 62.182 76.417 67.957 L 76.417 67.957 L 72.874 84.099 L 72.874 84.099 Q 71.43 91.055 70.118 98.011 L 70.118 98.011 L 70.118 98.011 Q 68.805 104.966 67.493 112.053 L 67.493 112.053 Z " fill="white" stroke="none"/></mask><path d=" M 67.493 112.053 L 52.663 113.103 L 51.35 111.922 L 61.325 64.282 L 61.325 64.282 Q 62.506 59.032 57.387 56.933 L 57.387 56.933 L 55.419 56.145 L 55.681 53.914 L 78.911 46.958 L 80.354 48.271 L 77.467 63.101 L 77.467 63.101 Q 84.292 55.883 91.378 51.486 L 91.378 51.486 L 91.378 51.486 Q 98.465 47.09 104.634 47.09 L 104.634 47.09 L 104.634 47.09 Q 108.833 47.09 111.524 49.649 L 111.524 49.649 L 111.524 49.649 Q 114.214 52.208 114.214 57.458 L 114.214 57.458 L 114.214 57.458 Q 114.214 60.345 113.689 63.298 L 113.689 63.298 L 113.689 63.298 Q 113.164 66.251 112.377 69.4 L 112.377 69.4 L 105.684 96.305 L 105.684 96.305 Q 105.159 98.404 104.831 99.914 L 104.831 99.914 L 104.831 99.914 Q 104.502 101.423 104.502 102.473 L 104.502 102.473 L 104.502 102.473 Q 104.502 105.229 106.734 105.229 L 106.734 105.229 L 106.734 105.229 Q 110.146 105.229 115.395 99.717 L 115.395 99.717 L 117.233 101.554 L 117.233 101.554 Q 113.952 106.41 108.702 110.15 L 108.702 110.15 L 108.702 110.15 Q 103.453 113.891 97.022 113.891 L 97.022 113.891 L 97.022 113.891 Q 92.953 113.891 90.591 111.922 L 90.591 111.922 L 90.591 111.922 Q 88.229 109.954 88.229 106.541 L 88.229 106.541 L 88.229 106.541 Q 88.229 103.785 88.885 100.964 L 88.885 100.964 L 88.885 100.964 Q 89.541 98.142 90.46 94.861 L 90.46 94.861 L 95.578 74.125 L 95.578 74.125 Q 96.628 70.188 97.284 67.038 L 97.284 67.038 L 97.284 67.038 Q 97.94 63.888 97.94 61.395 L 97.94 61.395 L 97.94 61.395 Q 97.94 58.77 96.825 57.786 L 96.825 57.786 L 96.825 57.786 Q 95.709 56.801 93.872 56.801 L 93.872 56.801 L 93.872 56.801 Q 90.722 56.801 86.326 59.492 L 86.326 59.492 L 86.326 59.492 Q 81.929 62.182 76.417 67.957 L 76.417 67.957 L 72.874 84.099 L 72.874 84.099 Q 71.43 91.055 70.118 98.011 L 70.118 98.011 L 70.118 98.011 Q 68.805 104.966 67.493 112.053 L 67.493 112.053 Z " fill="rgb(239,214,188)"/><path d=" M 67.493 112.053 L 52.663 113.103 L 51.35 111.922 L 61.325 64.282 L 61.325 64.282 Q 62.506 59.032 57.387 56.933 L 57.387 56.933 L 55.419 56.145 L 55.681 53.914 L 78.911 46.958 L 80.354 48.271 L 77.467 63.101 L 77.467 63.101 Q 84.292 55.883 91.378 51.486 L 91.378 51.486 L 91.378 51.486 Q 98.465 47.09 104.634 47.09 L 104.634 47.09 L 104.634 47.09 Q 108.833 47.09 111.524 49.649 L 111.524 49.649 L 111.524 49.649 Q 114.214 52.208 114.214 57.458 L 114.214 57.458 L 114.214 57.458 Q 114.214 60.345 113.689 63.298 L 113.689 63.298 L 113.689 63.298 Q 113.164 66.251 112.377 69.4 L 112.377 69.4 L 105.684 96.305 L 105.684 96.305 Q 105.159 98.404 104.831 99.914 L 104.831 99.914 L 104.831 99.914 Q 104.502 101.423 104.502 102.473 L 104.502 102.473 L 104.502 102.473 Q 104.502 105.229 106.734 105.229 L 106.734 105.229 L 106.734 105.229 Q 110.146 105.229 115.395 99.717 L 115.395 99.717 L 117.233 101.554 L 117.233 101.554 Q 113.952 106.41 108.702 110.15 L 108.702 110.15 L 108.702 110.15 Q 103.453 113.891 97.022 113.891 L 97.022 113.891 L 97.022 113.891 Q 92.953 113.891 90.591 111.922 L 90.591 111.922 L 90.591 111.922 Q 88.229 109.954 88.229 106.541 L 88.229 106.541 L 88.229 106.541 Q 88.229 103.785 88.885 100.964 L 88.885 100.964 L 88.885 100.964 Q 89.541 98.142 90.46 94.861 L 90.46 94.861 L 95.578 74.125 L 95.578 74.125 Q 96.628 70.188 97.284 67.038 L 97.284 67.038 L 97.284 67.038 Q 97.94 63.888 97.94 61.395 L 97.94 61.395 L 97.94 61.395 Q 97.94 58.77 96.825 57.786 L 96.825 57.786 L 96.825 57.786 Q 95.709 56.801 93.872 56.801 L 93.872 56.801 L 93.872 56.801 Q 90.722 56.801 86.326 59.492 L 86.326 59.492 L 86.326 59.492 Q 81.929 62.182 76.417 67.957 L 76.417 67.957 L 72.874 84.099 L 72.874 84.099 Q 71.43 91.055 70.118 98.011 L 70.118 98.011 L 70.118 98.011 Q 68.805 104.966 67.493 112.053 L 67.493 112.053 Z " fill="rgb(239,214,188)" mask="url(#_mask_RuXycWConcT8xhORRc6i4UZfADHnzaB6)" vector-effect="non-scaling-stroke" stroke-width="11" stroke="rgb(239,214,188)" stroke-opacity="100" stroke-linejoin="miter" stroke-linecap="square" stroke-miterlimit="3"/></g><g><path d=" M 29.316 139.033 C 24.722 135.902 28.337 128.069 34.732 131.297 C 38.953 134.138 44.063 136.228 47.109 136.712 C 50.155 137.195 52.089 140.145 50.977 142.901 C 49.865 145.657 46.571 145.961 43.241 145.222 C 39.912 144.482 33.911 142.163 29.316 139.033 Z " fill="rgb(239,214,189)"/><path d=" M 112.092 125.108 C 108.373 129.046 113.155 135.959 118.28 131.297 C 123.406 126.635 123.946 126.091 128.337 122.787 C 132.728 119.484 128.085 112.003 122.148 116.598 C 116.212 121.194 115.81 121.17 112.092 125.108 Z " fill="rgb(239,214,189)"/><path d=" M 97.393 145.995 C 94.775 147.519 90.995 148.696 86.829 149.502 C 77.546 151.299 66.346 151.253 61.808 149.089 C 57.269 146.926 60.684 142.194 62.581 141.353 C 64.479 140.513 65.619 140.978 70.317 141.353 C 75.016 141.729 81.051 142.466 91.204 138.259 C 101.358 134.053 102.567 143.961 97.393 145.995 Z " fill="rgb(239,214,189)"/><path d=" M 140.715 104.31 C 150.61 98.525 169.71 97.684 172.432 98.032 C 175.155 98.379 176.297 99.658 176.3 101.9 C 176.304 104.142 174.856 106.076 173.206 106.542 C 171.556 107.007 168.516 106.922 164.696 107.315 C 160.877 107.708 153.31 108.778 144.583 112.73 C 135.856 116.683 134.169 106.62 140.715 104.31 Z " fill="rgb(239,214,189)"/></g></g></svg>